<?xml version="1.0" encoding="utf-8"?>
<!-- Generator: Adobe Illustrator 24.1.0, SVG Export Plug-In . SVG Version: 6.00 Build 0)  -->
<svg version="1.1" id="Layer_1" xmlns="http://www.w3.org/2000/svg" xmlns:xlink="http://www.w3.org/1999/xlink" x="0px" y="0px"
	 viewBox="0 0 100 100" style="enable-background:new 0 0 100 100;" xml:space="preserve">
<style type="text/css">
	.st0{fill:#231F20;}
</style>
<g>
	<path class="st0" d="M33.98,67.91l-9.27,0.72c-2.69,0.24-5.1-2.17-5.39-5.39c-0.29-3.21,1.65-6.02,4.34-6.26l10.32-0.8v-5.35
		l-9.97,0.76c-2.69,0.24-5.1-2.17-5.39-5.39c-0.29-3.22,1.65-6.02,4.34-6.27l11.02-0.84V22.85c0-2.7,2.47-4.88,5.52-4.88
		c3.05,0,5.51,2.19,5.51,4.88v15.41l8.37-0.63V13.09c0-0.67,0.15-1.31,0.43-1.89c-1.32-0.13-2.66-0.2-4.01-0.2
		c-21.56,0-39.05,17.48-39.05,39.04c0,15.93,9.55,29.62,23.23,35.7V67.91z"/>
	<polygon class="st0" points="53.37,54.69 53.37,49.37 45.01,50 45.01,55.34 	"/>
	<path class="st0" d="M64.45,13.85v22.94l11.32-0.86c2.69-0.24,5.1,2.17,5.39,5.39c0.29,3.22-1.65,6.02-4.34,6.27l-12.37,0.94v5.31
		l11.32-0.87c2.69-0.24,5.1,2.17,5.39,5.38c0.29,3.22-1.65,6.02-4.34,6.26l-12.37,0.95v13.07c0,2.7-2.48,4.88-5.54,4.88
		c-3.06,0-5.54-2.18-5.54-4.88V66.42l-8.37,0.64V87c0,0.62-0.14,1.2-0.38,1.74c1.69,0.22,3.41,0.35,5.17,0.35
		c21.56,0,39.04-17.48,39.04-39.04C88.84,33.67,78.75,19.65,64.45,13.85z"/>
</g>
</svg>
